<?xml version="1.0" encoding="UTF-8"?>
<svg version="1.1" xmlns="http://www.w3.org/2000/svg" width="216" height="233">
<path d="M0 0 C71.28 0 142.56 0 216 0 C216 76.89 216 153.78 216 233 C144.72 233 73.44 233 0 233 C0 156.11 0 79.22 0 0 Z " fill="#231F20" transform="translate(0,0)"/>
<path d="M0 0 C2.48794878 3.31726504 3.52821942 4.99613909 4.6875 8.75 C4.93886719 9.54921875 5.19023438 10.3484375 5.44921875 11.171875 C5.63097656 11.77515625 5.81273437 12.3784375 6 13 C3.93771746 14.27118733 1.87518109 15.54195965 -0.1875 16.8125 C-1.0547168 17.34713867 -1.0547168 17.34713867 -1.93945312 17.89257812 C-3.62496993 18.93055175 -5.31246025 19.96531853 -7 21 C-7.92425781 21.58136719 -8.84851563 22.16273437 -9.80078125 22.76171875 C-12 24 -12 24 -14 24 C-14.45211391 31.57879969 -14.76342136 39.15294525 -14.90415287 46.74371529 C-14.97381526 50.27240607 -15.08834514 53.7866044 -15.31323242 57.30908203 C-16.20439292 70.92378203 -16.20439292 70.92378203 -13 84 C-7.1133755 90.4819485 1.00116721 93.62803423 9.00253296 96.77416992 C12.80242723 98.32815688 16.02919651 100.24828392 19.48046875 102.46484375 C20.94323242 103.35139648 20.94323242 103.35139648 22.43554688 104.25585938 C24.35031654 105.42592089 26.25873805 106.60640833 28.16210938 107.79492188 C29.11279297 108.36662109 30.06347656 108.93832031 31.04296875 109.52734375 C31.85789795 110.02999756 32.67282715 110.53265137 33.51245117 111.05053711 C36.8000308 112.30536066 38.62821669 111.93214788 42 111 C44.79009717 109.72407213 44.79009717 109.72407213 47.53515625 108.04296875 C48.59412109 107.42357422 49.65308594 106.80417969 50.74414062 106.16601562 C51.83919922 105.51310547 52.93425781 104.86019531 54.0625 104.1875 C56.19874417 102.93018289 58.33548116 101.67370283 60.47265625 100.41796875 C61.30445656 99.89446335 61.30445656 99.89446335 62.15306091 99.36038208 C65.82893172 97.08888025 69.43945349 95.40907275 73.49047852 93.89208984 C79.41864796 91.47122746 84.89014506 89.06550188 89 84 C92.30210393 74.95732779 91.38419751 64.8388438 90.90551758 55.36230469 C90.74968605 51.82357934 90.715315 48.28374632 90.66992188 44.7421875 C90.56370854 37.82242873 90.32517083 30.91284473 90 24 C89.24750977 23.70867187 88.49501953 23.41734375 87.71972656 23.1171875 C84.23594112 21.68614601 81.01192485 19.86782419 77.75 18 C77.11320312 17.64421875 76.47640625 17.2884375 75.8203125 16.921875 C71.12118676 14.24237351 71.12118676 14.24237351 70 12 C70.73178866 9.92803369 71.55899003 7.8891448 72.4375 5.875 C73.14712891 4.23144531 73.14712891 4.23144531 73.87109375 2.5546875 C74.24363281 1.71164063 74.61617188 0.86859375 75 0 C77.74426077 1.30074788 80.43137893 2.64417355 83.09912109 4.09814453 C85.81378369 5.52091053 88.38406745 6.41801534 91.3425293 7.20117188 C96.74518266 8.96756182 100.85741892 11.12485648 104 16 C107.14407014 27.41736157 106.23972296 39.72594788 105.92504883 51.4510498 C105.85836932 55.01352441 105.90300055 58.57103012 105.94851494 62.13356209 C105.98006326 65.57829678 105.94756001 69.02013968 105.89535904 72.46453476 C105.87673505 74.10455816 105.87600811 75.74489267 105.89410019 77.38492203 C105.9262895 82.55484327 105.71973804 87.09228411 104 92 C100.04915998 95.81503452 96.03368059 97.78206677 91 100 C89.02434304 101.09795193 87.05750363 102.21214216 85.10546875 103.3515625 C83.13419893 104.44521107 81.16150603 105.53629797 79.1875 106.625 C72.49594313 110.33177501 65.83427562 114.07228548 59.2578125 117.98046875 C58.17604736 118.62226074 57.09428223 119.26405273 55.97973633 119.92529297 C53.91228025 121.15719272 51.84937586 122.396773 49.79174805 123.64501953 C48.38856323 124.48009033 48.38856323 124.48009033 46.95703125 125.33203125 C46.14210205 125.82421143 45.32717285 126.3163916 44.48754883 126.82348633 C41.52927264 128.2226357 39.27785386 128.84016211 36 129 C33.11352539 127.85107422 33.11352539 127.85107422 30.09765625 126.0546875 C28.97109619 125.39597656 27.84453613 124.73726563 26.68383789 124.05859375 C25.4765966 123.33094259 24.26948693 122.60307301 23.0625 121.875 C21.81280254 121.13756619 20.56205642 120.4019068 19.31030273 119.66796875 C16.76431522 118.17388463 14.22270998 116.6727199 11.68359375 115.16699219 C5.48605895 111.50499632 -0.81313972 108.02177008 -7.09936523 104.51513672 C-8.77155256 103.57517313 -10.4331708 102.61604435 -12.08125305 101.63442993 C-15.01424122 99.92711008 -15.01424122 99.92711008 -18.31829834 98.56286621 C-22.28665781 96.63753523 -24.84409361 95.10321286 -28 92 C-29.81781649 86.18088732 -29.52449806 80.63155533 -29.26953125 74.59375 C-29.2452548 72.90131724 -29.22676381 71.2087925 -29.21379089 69.51623535 C-29.16437431 65.08153744 -29.03691606 60.65246104 -28.89263916 56.2199707 C-28.75914465 51.68908762 -28.70017429 47.15728678 -28.63476562 42.625 C-28.4957355 33.74714417 -28.26729784 24.87492094 -28 16 C-18.76 10.72 -9.52 5.44 0 0 Z " fill="#F9F9F9" transform="translate(70,56)"/>
<path d="M0 0 C71.28 0 142.56 0 216 0 C216 5.61 216 11.22 216 17 C144.72 17 73.44 17 0 17 C0 11.39 0 5.78 0 0 Z " fill="#121325" transform="translate(0,216)"/>
<path d="M0 0 C10.56 0 21.12 0 32 0 C32 0.33 32 0.66 32 1 C27.05 1 22.1 1 17 1 C17 28.72 17 56.44 17 85 C23.435 84.505 23.435 84.505 30 84 C30 71.13 30 58.26 30 45 C41.55 45 53.1 45 65 45 C64.67 39.72 64.34 34.44 64 29 C64.99 30.485 64.99 30.485 66 32 C66.33 25.07 66.66 18.14 67 11 C67.33 11 67.66 11 68 11 C68.34901021 18.53540215 68.61476596 26.06996046 68.77718258 33.61162472 C68.85519239 37.11517879 68.96071027 40.61317386 69.1315918 44.11352539 C70.19552042 66.50972953 70.19552042 66.50972953 66.71295166 72.04605103 C63.36403063 75.27002749 59.43943465 76.79090766 55.08450317 78.24118042 C51.69104475 79.47649765 48.73093527 81.36846826 45.65625 83.23828125 C44.46331779 83.92407908 43.26800469 84.60575252 42.0703125 85.28320312 C41.48282227 85.61715088 40.89533203 85.95109863 40.29003906 86.29516602 C39.40396973 86.79874634 39.40396973 86.79874634 38.5 87.3125 C36.67922284 88.34972215 34.85870823 89.38740037 33.03857422 90.42575073 C31.34072578 91.3919357 29.63917536 92.35160633 27.9375 93.31103516 C26.20774005 94.30558962 24.49175244 95.32616333 22.8125 96.40380859 C20.03498601 98.18010797 18.47617359 99.03880173 15.13574219 98.76660156 C11.89976617 97.97549562 9.64186176 96.90485207 6.796875 95.19140625 C5.82476074 94.61374512 4.85264648 94.03608398 3.85107422 93.44091797 C2.82771973 92.82104004 1.80436523 92.20116211 0.75 91.5625 C-1.39748596 90.28355716 -3.54593328 89.00622723 -5.6953125 87.73046875 C-6.75782227 87.09802246 -7.82033203 86.46557617 -8.91503906 85.81396484 C-13.98133655 82.83496909 -19.12739056 80.00529661 -24.29003906 77.19750977 C-24.9600293 76.83069092 -25.63001953 76.46387207 -26.3203125 76.0859375 C-26.89023926 75.7770459 -27.46016602 75.4681543 -28.04736328 75.14990234 C-28.6917334 74.77043457 -29.33610352 74.3909668 -30 74 C-31.05380859 73.5757373 -32.10761719 73.15147461 -33.19335938 72.71435547 C-36.54844744 69.46958606 -36.46184578 68.56087926 -36.68115234 64.03808594 C-36.68020212 61.51998245 -36.64628633 59.00175541 -36.5859375 56.484375 C-36.57474115 55.14489646 -36.56620303 53.80539328 -36.56021118 52.46588135 C-36.53734568 48.94709959 -36.47844737 45.42981348 -36.4119873 41.91162109 C-36.35051242 38.31889073 -36.32318539 34.72591767 -36.29296875 31.1328125 C-36.22869808 24.08793125 -36.12634963 17.04406347 -36 10 C-35.01 9.67 -34.02 9.34 -33 9 C-33.33 9.99 -33.66 10.98 -34 12 C-34.15322359 14.58330229 -34.25706889 17.14492239 -34.31640625 19.73046875 C-34.33718735 20.48088943 -34.35796844 21.23131012 -34.37937927 22.00447083 C-34.44469926 24.39872184 -34.50367792 26.79308139 -34.5625 29.1875 C-34.60570193 30.81186013 -34.64931676 32.43620933 -34.69335938 34.06054688 C-34.80036263 38.04025371 -34.90167937 42.02006958 -35 46 C-34.34 46 -33.68 46 -33 46 C-33 46.99 -33 47.98 -33 49 C-32.34 49 -31.68 49 -31 49 C-30.8040625 49.66644531 -30.608125 50.33289063 -30.40625 51.01953125 C-27.50204368 59.96999471 -22.96579329 68.59464027 -15 74 C-14.94027981 62.68223888 -14.94027981 62.68223888 -18.0625 52 C-20.26484334 47.36221858 -20.41165136 43.11406274 -20.4375 38.0625 C-20.44724854 37.31548828 -20.45699707 36.56847656 -20.46704102 35.79882812 C-20.38313479 30.43372941 -20.38313479 30.43372941 -18.47290039 28.27124023 C-17.98684326 27.85173096 -17.50078613 27.43222168 -17 27 C-16.70230713 27.7520874 -16.40461426 28.5041748 -16.09790039 29.27905273 C-14.75543994 32.66626842 -13.40902526 36.05189828 -12.0625 39.4375 C-11.59392578 40.62150391 -11.12535156 41.80550781 -10.64257812 43.02539062 C-10.19462891 44.15009766 -9.74667969 45.27480469 -9.28515625 46.43359375 C-8.87144775 47.47572021 -8.45773926 48.51784668 -8.03149414 49.59155273 C-7.21597977 51.90789285 -7.21597977 51.90789285 -6 53 C-3.69 46.4 -1.38 39.8 1 33 C1.33 33 1.66 33 2 33 C2 49.83 2 66.66 2 84 C6.29 84.66 10.58 85.32 15 86 C15 57.95 15 29.9 15 1 C10.05 1 5.1 1 0 1 C0 0.67 0 0.34 0 0 Z " fill="#201C1D" transform="translate(92,70)"/>
<path d="M0 0 C4.95 0 9.9 0 15 0 C15 28.05 15 56.1 15 85 C5 84 5 84 2 83 C1.67 66.83 1.34 50.66 1 34 C-0.98 39.94 -2.96 45.88 -5 52 C-5.66 52.66 -6.32 53.32 -7 54 C-7.29769287 53.25314941 -7.59538574 52.50629883 -7.90209961 51.73681641 C-9.24633754 48.36585302 -10.59190179 44.99542062 -11.9375 41.625 C-12.40607422 40.449375 -12.87464844 39.27375 -13.35742188 38.0625 C-13.80537109 36.94101563 -14.25332031 35.81953125 -14.71484375 34.6640625 C-15.12855225 33.62717285 -15.54226074 32.5902832 -15.96850586 31.52197266 C-16.93799038 29.06124187 -16.93799038 29.06124187 -18 27 C-20.74627972 32.49255944 -19.98940124 42.95834727 -18.10546875 48.75 C-17.36926636 50.24841901 -16.63098807 51.74581989 -15.890625 53.2421875 C-13.87382217 59.48719976 -14.72907551 66.51286353 -15 73 C-21.24552267 70.43487462 -25.36501153 64.22695093 -28.3359375 58.36328125 C-29.32638707 55.93183927 -30.19169657 53.49723217 -31 51 C-31.4125 49.88625 -31.825 48.7725 -32.25 47.625 C-34.52049047 36.65096272 -32.96327746 25.89347311 -27.3515625 16.1328125 C-24.33492072 11.69347503 -21.13398934 7.44499111 -17 4 C-16.01 4 -15.02 4 -14 4 C-10.535 12.415 -10.535 12.415 -7 21 C-4.69 14.07 -2.38 7.14 0 0 Z " fill="#F4F4F4" transform="translate(92,71)"/>
<path d="M0 0 C28 0 28 0 36 7 C45.62691988 18.45007108 48 28.97170282 48 44 C36.45 44 24.9 44 13 44 C13 56.87 13 69.74 13 83 C9 84 9 84 0 84 C0 56.28 0 28.56 0 0 Z " fill="#F4F4F4" transform="translate(109,71)"/>
<path d="M0 0 C3.15282724 1.42089299 5.53777964 3.15031851 8.125 5.4375 C9.14980469 6.33275391 9.14980469 6.33275391 10.1953125 7.24609375 C12 9 12 9 14 12 C13.484375 12.515625 12.96875 13.03125 12.4375 13.5625 C10.67665637 16.04936338 10.67665637 16.04936338 11.125 19.625 C11.66730764 23.25935918 11.66730764 23.25935918 15 25 C18.97615614 25.31556795 21.75939556 25.50896592 25.4375 24 C27.21439848 21.72556995 27.26026974 20.74795479 27.5 17.9375 C28 14 28 14 29.5625 12.5 C33.09593558 11.7751927 36.39409861 11.87980329 40 12 C36.8289504 21.5131488 32.89133443 30.75808072 29 40 C10.52 40 -7.96 40 -27 40 C-29.7225 33.626875 -29.7225 33.626875 -32.5 27.125 C-33.07427734 25.7858252 -33.64855469 24.44665039 -34.24023438 23.06689453 C-34.68689453 22.01614746 -35.13355469 20.96540039 -35.59375 19.8828125 C-36.05458984 18.80402832 -36.51542969 17.72524414 -36.99023438 16.61376953 C-38 14 -38 14 -38 12 C-34.39409861 11.87980329 -31.09593558 11.7751927 -27.5625 12.5 C-25.26438896 14.7061866 -25.57409092 17.05001963 -25.3203125 20.08984375 C-25.13252897 22.17304302 -25.13252897 22.17304302 -23.375 24 C-19.39242488 25.67687373 -15.77629992 25.42070261 -11.625 24.4375 C-9.66871992 22.9677649 -9.66871992 22.9677649 -9.0625 19.6875 C-8.99453238 15.67741025 -9.61842626 14.14367733 -12 11 C-10.75323147 9.72599623 -9.5024352 8.45593346 -8.25 7.1875 C-7.55390625 6.47980469 -6.8578125 5.77210937 -6.140625 5.04296875 C-4.18571355 3.17724121 -2.19661447 1.56830358 0 0 Z " fill="#F5F5F5" transform="translate(107,30)"/>
<path d="M0 0 C9.63556912 3.21185637 15.13372176 8.08882169 20 17 C21.33575072 19.97182123 22 21.71715021 22 25 C14.74 25 7.48 25 0 25 C0 16.75 0 8.5 0 0 Z " fill="#1F1C1D" transform="translate(122,78)"/>
<path d="M0 0 C3.0625 0.1875 3.0625 0.1875 5.0625 2.1875 C4.50694444 6.74305556 4.50694444 6.74305556 3.0625 8.1875 C0.125 8.375 0.125 8.375 -2.9375 8.1875 C-3.5975 7.5275 -4.2575 6.8675 -4.9375 6.1875 C-4.21574268 0.26908996 -4.21574268 0.26908996 0 0 Z " fill="#1F1C1C" transform="translate(107.9375,35.8125)"/>
<path d="M0 0 C0 1.65 0 3.3 0 5 C-1.98 5.33 -3.96 5.66 -6 6 C-5.67 5.01 -5.34 4.02 -5 3 C-5.66 2.67 -6.32 2.34 -7 2 C-7 2.99 -7 3.98 -7 5 C-7.99 5 -8.98 5 -10 5 C-10 4.01 -10 3.02 -10 2 C-10.66 1.67 -11.32 1.34 -12 1 C-7.93631321 0.22596442 -4.13574827 -0.0984702 0 0 Z " fill="#74747A" transform="translate(33,222)"/>
<path d="M0 0 C0.97582031 0.10183594 1.95164063 0.20367187 2.95703125 0.30859375 C3.69308594 0.39238281 4.42914063 0.47617188 5.1875 0.5625 C5.1875 1.2225 5.1875 1.8825 5.1875 2.5625 C-0.34217941 3.27283431 -5.31233036 3.86517176 -10.8125 2.5625 C-10.8125 1.9025 -10.8125 1.2425 -10.8125 0.5625 C-7.01982808 -0.3735342 -3.87575435 -0.42026252 0 0 Z " fill="#707078" transform="translate(175.8125,224.4375)"/>
<path d="M0 0 C0.66 0 1.32 0 2 0 C2.33 0.66 2.66 1.32 3 2 C3.66 1.34 4.32 0.68 5 0 C6.33841672 0.31229724 7.67139075 0.64830932 9 1 C11.18703385 0.62092718 11.18703385 0.62092718 13 0 C13.33 0.66 13.66 1.32 14 2 C13.34 2.66 12.68 3.32 12 4 C12 3.34 12 2.68 12 2 C11.34 2 10.68 2 10 2 C9.67 2.99 9.34 3.98 9 5 C8.01 5 7.02 5 6 5 C4.66018514 5.3062434 3.32488113 5.63451555 2 6 C1.34 4.02 0.68 2.04 0 0 Z " fill="#7A7A82" transform="translate(6,222)"/>
<path d="M0 0 C2.625 0.375 2.625 0.375 5 1 C5 2.32 5 3.64 5 5 C3.35 5.33 1.7 5.66 0 6 C-0.66 4.68 -1.32 3.36 -2 2 C-1.34 1.34 -0.68 0.68 0 0 Z " fill="#2D2A2B" transform="translate(106,61)"/>
<path d="M0 0 C0 0.99 0 1.98 0 3 C-0.99 3.33 -1.98 3.66 -3 4 C-3.33 3.67 -3.66 3.34 -4 3 C-5.52519276 3.08937803 -7.04681929 3.24537146 -8.5625 3.4375 C-9.38878906 3.53933594 -10.21507812 3.64117187 -11.06640625 3.74609375 C-11.70449219 3.82988281 -12.34257812 3.91367188 -13 4 C-13.33 3.01 -13.66 2.02 -14 1 C-4.58997722 -0.14806378 -4.58997722 -0.14806378 0 0 Z " fill="#73737B" transform="translate(196,224)"/>
<path d="M0 0 C2.475 0.495 2.475 0.495 5 1 C5 1.66 5 2.32 5 3 C5.66 3 6.32 3 7 3 C7 3.66 7 4.32 7 5 C5.02 5 3.04 5 1 5 C0.67 3.35 0.34 1.7 0 0 Z " fill="#8F8F93" transform="translate(34,223)"/>
<path d="M0 0 C1.98 0 3.96 0 6 0 C6 1.32 6 2.64 6 4 C3.03 3.505 3.03 3.505 0 3 C0 2.01 0 1.02 0 0 Z " fill="#6C6C75" transform="translate(204,224)"/>
<path d="M0 0 C0.33 1.32 0.66 2.64 1 4 C-0.98 4.33 -2.96 4.66 -5 5 C-4.67 3.68 -4.34 2.36 -4 1 C-2.68 0.67 -1.36 0.34 0 0 Z " fill="#9B9BA0" transform="translate(32,223)"/>
<path d="M0 0 C2.31 0.33 4.62 0.66 7 1 C7 1.66 7 2.32 7 3 C4 4 4 4 1 3 C0.67 2.01 0.34 1.02 0 0 Z " fill="#6F6F78" transform="translate(157,224)"/>
</svg>
